<svg class="shape" fill="#FFEFC5" xmlns="http://www.w3.org/2000/svg" xmlns:xlink="http://www.w3.org/1999/xlink" width="105px" height="80px"><path d="M104.768,46.596 C103.512,53.499 97.269,58.301 91.117,61.679 C77.841,68.967 63.002,72.833 48.310,76.516 C40.421,78.492 32.367,80.451 24.252,79.893 C23.977,79.874 23.702,79.851 23.426,79.826 C15.577,79.094 7.660,75.615 3.385,69.025 C0.518,64.605 -0.391,59.254 0.154,53.978 C0.481,50.815 1.330,47.677 2.594,44.784 C4.373,40.709 6.870,37.034 9.730,33.620 C12.289,30.568 15.138,27.725 18.038,25.002 C24.140,19.273 30.567,13.891 37.279,8.890 C41.647,5.637 46.299,2.342 51.494,0.551 C56.951,-1.331 61.008,1.926 65.771,4.608 C72.267,8.264 78.490,12.408 84.374,16.984 C86.832,18.895 89.229,20.884 91.564,22.945 C92.385,23.670 93.201,24.402 94.006,25.145 C96.362,27.319 98.710,29.770 100.630,32.428 C103.718,36.705 105.691,41.522 104.768,46.596 Z"></path></svg>