<svg class="shape" fill="#FFEFC5" xmlns="http://www.w3.org/2000/svg" xmlns:xlink="http://www.w3.org/1999/xlink" width="111px" height="79px"><path d="M104.291,51.828 C98.019,60.839 88.939,65.934 79.675,69.589 C78.703,69.973 77.729,70.339 76.756,70.695 C70.214,73.079 63.555,75.012 56.818,76.487 C52.170,77.504 46.185,79.782 41.377,78.729 C35.709,77.491 29.573,72.385 24.073,66.622 C19.930,62.282 16.148,57.570 13.202,53.858 C9.879,49.670 6.733,45.085 4.332,40.057 C2.705,36.648 1.416,33.039 0.660,29.205 C0.495,28.369 0.363,27.520 0.260,26.664 C-0.809,17.814 1.431,8.213 7.280,3.434 C12.395,-0.743 19.166,-0.569 25.289,1.096 C31.411,2.760 37.332,5.756 43.525,6.802 C50.958,8.057 58.411,6.451 65.704,4.762 C72.997,3.075 80.398,1.296 87.854,2.211 C88.123,2.244 88.392,2.289 88.661,2.332 C95.524,3.379 102.448,7.076 106.734,13.861 C106.943,14.192 107.153,14.521 107.349,14.867 C113.666,26.001 111.221,41.873 104.291,51.828 Z"></path></svg>