<svg class="shape" fill="#FFEFC5" xmlns="http://www.w3.org/2000/svg" xmlns:xlink="http://www.w3.org/1999/xlink" width="119px" height="80px"><path d="M118.988,32.868 C118.954,33.798 118.867,34.713 118.740,35.616 C117.289,45.963 109.998,54.513 102.246,60.696 C100.672,61.950 99.062,63.147 97.419,64.283 C85.885,72.259 72.742,77.274 59.279,78.981 C53.104,79.765 44.685,81.169 38.854,78.104 C32.784,74.915 27.054,69.136 21.255,65.231 C15.037,61.044 8.845,56.391 4.621,49.782 C0.397,43.173 -1.534,34.183 1.434,26.764 C2.652,23.719 4.595,21.166 6.927,19.084 C9.080,17.161 11.562,15.641 14.122,14.520 C16.812,13.341 19.604,12.537 22.432,11.873 C25.211,11.221 28.024,10.704 30.810,10.101 C32.737,9.685 34.655,9.223 36.569,8.737 C45.702,6.418 54.720,3.489 63.942,1.669 C75.098,-0.533 86.824,-1.043 97.533,3.095 C103.301,5.324 108.727,8.943 112.734,14.101 C114.004,15.737 115.121,17.535 116.049,19.444 C118.047,23.560 119.159,28.199 118.988,32.868 Z"></path></svg>