<svg class="shape" fill="#FFEFC5" xmlns="http://www.w3.org/2000/svg" xmlns:xlink="http://www.w3.org/1999/xlink" width="112px" height="81px"><path d="M94.170,75.633 C89.320,80.748 82.081,83.923 75.335,81.794 C69.399,79.922 65.020,74.470 59.599,71.197 C51.098,66.064 40.914,66.687 31.305,66.427 C27.387,66.323 23.278,65.938 19.374,64.964 C15.436,63.982 11.710,62.398 8.596,59.896 C7.227,58.797 5.976,57.524 4.879,56.041 C3.059,53.582 1.896,50.791 1.293,47.862 C-0.404,39.611 2.385,30.251 7.785,24.023 C13.919,16.948 22.510,13.058 31.345,10.292 C33.050,9.757 34.764,9.266 36.470,8.800 C39.687,7.924 42.924,7.120 46.176,6.383 C57.811,3.738 69.652,1.969 81.586,1.107 C82.278,1.057 82.974,1.011 83.672,0.974 C87.959,0.740 92.319,0.840 96.367,2.483 C105.518,6.200 110.819,17.150 111.330,27.451 C112.127,43.538 104.736,64.487 94.170,75.633 Z"></path></svg>