<svg class="shape" fill="#FFEFC5" xmlns="http://www.w3.org/2000/svg" xmlns:xlink="http://www.w3.org/1999/xlink" width="116px" height="81px"><path d="M109.211,58.119 C103.645,68.260 94.581,77.680 82.450,80.249 C73.546,82.134 64.269,80.109 55.400,78.092 C51.907,77.297 48.414,76.503 44.921,75.708 C40.378,74.674 35.835,73.641 31.291,72.607 C25.787,71.354 20.142,70.045 15.508,67.066 C9.647,63.297 8.873,57.835 6.412,52.231 C4.771,48.495 2.992,44.886 1.723,41.136 C0.784,38.357 0.123,35.500 0.013,32.453 C-0.185,27.013 1.715,21.246 5.539,17.213 C7.301,15.355 9.470,13.864 12.033,12.944 C22.467,9.200 34.071,16.001 45.211,14.807 C57.088,13.532 65.756,3.598 77.302,0.763 C89.987,-2.353 103.658,4.415 110.574,14.666 C111.487,16.019 112.287,17.429 112.946,18.888 C113.554,20.235 114.060,21.606 114.479,22.994 C115.652,26.875 116.114,30.898 115.979,34.945 C115.712,42.910 113.146,50.950 109.211,58.119 Z"></path></svg>